<svg width="1440" height="362" viewBox="0 0 1440 362" fill="none" xmlns="http://www.w3.org/2000/svg">
<rect y="100.5" width="1440" height="261" fill="black"/>
<path d="M0.5 55.7L50.5 77.9L209.5 0L263.5 31.5L273.5 59.4L309.5 64.9L364.5 33.4L436.5 13.9L494.5 39L508.5 64L554.5 77.9L624.5 56.6L701.5 26.9L696.5 0L804.5 19.5L863.5 66.8L938.5 70.5L1054.5 39L1103.5 0L1188.5 34.3L1256.5 88.1L1311.5 55.7L1369.5 77L1439.5 0V185.5L1301.5 167L1201.5 169.8L1116.5 185.5L979.5 146.6L875.5 154.9L818.5 165.1L673.5 134.5L585.5 168.8L487.5 185.5L455.5 149.4H371.5L233.5 176.3L174.5 127.1L118.5 148.4L42.5 174.4L0.5 185.5V55.7Z" fill="#FF0000"/>
<path d="M1456 21.5V77.4L1385.2 151.7L1326.5 131.1L1270.8 162.4L1202 110.5L1116 77.4L1066.4 115L949.1 145.4L873.2 141.8L813.5 96.2L704.2 77.4L709.3 103.3L631.4 132L560.5 152.6L514 139.1L499.8 115L441.2 90.8L368.3 109.6L312.7 140L276.2 134.7L266.1 107.8L211.5 77.4L50.6 152.6L0 131.1V75.2L50.6 96.7L211.5 21.5L266.1 51.9L276.2 78.8L312.7 84.1L368.3 53.7L441.2 34.9L499.8 59.1L514 83.2L560.5 96.7L631.4 76.1L709.3 47.4L704.2 21.5L813.5 40.3L873.2 85.9L949.1 89.5L1066.4 59.1L1116 21.5L1202 54.6L1270.8 106.5L1326.5 75.2L1385.2 95.8L1456 21.5Z" fill="#770000"/>
<path d="M1456 77.4V200.5L1316.4 182.6L1215.2 185.3L1129.2 200.5L990.6 162.9L885.3 171L827.7 180.8L681 151.3L591.9 184.4L492.8 200.5L460.4 165.6H375.4L235.8 191.5L176.1 144.1L119.4 164.7L42.5 189.8L0 200.5V131.1L50.6 152.6L211.5 77.4L266.1 107.8L276.2 134.7L312.7 140L368.3 109.6L441.2 90.8L499.8 115L514 139.1L560.5 152.6L631.4 132L709.3 103.3L704.2 77.4L813.5 96.2L873.2 141.8L949.1 145.4L1066.4 115L1116 77.4L1202 110.5L1270.8 162.4L1326.5 131.1L1385.2 151.7L1456 77.4Z" fill="#3B0000"/>
</svg>
