<svg width="78" height="72" viewBox="0 0 78 72" fill="none" xmlns="http://www.w3.org/2000/svg">
<path d="M73.9224 0H3.98762C1.78556 0 0 1.89488 0 4.23176V53.9042C0 56.2411 1.78556 58.136 3.98762 58.136H28.1544C26.9363 60.8743 25.7181 63.6137 24.5 66.352C34.5283 66.352 44.5577 66.352 54.586 66.352C53.2111 63.6137 51.8361 60.8743 50.4612 58.136H73.9224C76.1244 58.136 77.91 56.2411 77.91 53.9042V4.23176C77.91 1.89488 76.1244 0 73.9224 0ZM73.696 49.712H4.41V5.2H73.696V49.712Z" fill="#FF0000"/>
<path d="M26.2895 29.6847C25.6005 30.5604 25.186 31.6867 25.186 32.916C25.186 35.7022 27.3136 37.96 29.939 37.96C30.088 37.96 30.235 37.9517 30.38 37.9371V41.6094C30.38 42.121 30.771 42.536 31.2532 42.536H32.2508C32.733 42.536 33.124 42.121 33.124 41.6094V42.6494C33.124 43.161 33.515 43.576 33.9972 43.576H35.0928C35.575 43.576 35.966 43.161 35.966 42.6494V43.0654C35.966 43.577 36.357 43.992 36.8392 43.992H37.9348C38.417 43.992 38.808 43.577 38.808 43.0654C38.808 43.577 39.199 43.992 39.6812 43.992H40.7768C41.259 43.992 41.65 43.577 41.65 43.0654V42.7627C41.795 43.0602 42.0871 43.264 42.4252 43.264H43.5208C44.003 43.264 44.394 42.849 44.394 42.3374V41.8174C44.394 42.329 44.785 42.744 45.2672 42.744H46.5588C47.041 42.744 47.432 42.329 47.432 41.8174V37.8165C47.7936 37.909 48.1709 37.96 48.559 37.96C51.1844 37.96 53.312 35.7022 53.312 32.916C53.312 31.5588 52.8063 30.3285 51.9851 29.4216C53.2032 27.4591 53.9 25.1919 53.9 22.776C53.9 15.3088 47.2527 9.256 39.053 9.256C30.8533 9.256 24.206 15.3088 24.206 22.776C24.206 25.3011 24.9665 27.663 26.2895 29.6847ZM42.628 27.0265C43.3523 26.3411 44.4636 26.4087 45.1094 27.1783L45.669 27.845L46.2119 27.1981C46.5588 26.7852 47.041 26.5741 47.5241 26.5741C47.9406 26.5741 48.3581 26.7301 48.6933 27.0473C49.4185 27.7326 49.4822 28.911 48.8363 29.6806L48.0239 30.6478L48.7873 31.5578C49.4341 32.3274 49.3695 33.5057 48.6452 34.191C47.92 34.8764 46.8097 34.8088 46.1639 34.0402L45.669 33.4516L45.1574 34.06C44.5116 34.8296 43.4013 34.8972 42.6761 34.2118C41.9518 33.5265 41.8872 32.3471 42.533 31.5786L43.315 30.6478L42.485 29.6598C42.1861 29.3041 42.0391 28.861 42.0391 28.4201C42.0391 27.9063 42.238 27.3946 42.628 27.0265ZM37.1263 36.0568C37.5379 35.1416 38.32 34.5966 39.0128 34.6757C39.7253 34.5374 40.5573 35.0917 40.9856 36.0454C41.4746 37.1332 41.2531 38.3282 40.4907 38.713C40.0487 38.9366 39.5234 38.8378 39.0638 38.505C38.6002 38.8471 38.0681 38.9501 37.6222 38.7244C36.8598 38.3386 36.6383 37.1446 37.1263 36.0568ZM29.5695 27.0161C30.2938 26.3307 31.4051 26.3983 32.0509 27.1679L32.6105 27.8346L33.1534 27.1877C33.7992 26.4191 34.9105 26.3515 35.6357 27.0369C36.36 27.7222 36.4237 28.9016 35.7778 29.6702L34.9654 30.6374L35.7298 31.5474C36.3756 32.317 36.3119 33.4953 35.5867 34.1817C34.8625 34.867 33.7512 34.7984 33.1054 34.0298L32.6105 33.4412L32.0999 34.0506C31.4541 34.8192 30.3428 34.8868 29.6176 34.2014C28.8933 33.5161 28.8296 32.3367 29.4755 31.5682L30.2565 30.6374L29.4265 29.6494C29.1276 29.2937 28.9806 28.8506 28.9806 28.4097C28.9806 27.8959 29.1795 27.3842 29.5695 27.0161Z" fill="#FF0000"/>
<path d="M55.5758 67.912H23.4122C22.7144 67.912 22.148 68.5121 22.148 69.2536V70.5234C22.148 71.2639 22.7135 71.865 23.4122 71.865H55.5758C56.2736 71.865 56.84 71.265 56.84 70.5234V69.2536C56.84 68.5121 56.2745 67.912 55.5758 67.912Z" fill="#FF0000"/>
<path d="M26.362 9.256H6.37V13.208H26.362V9.256Z" fill="#FF0000"/>
<path d="M23.324 17.576H6.37V21.528H23.324V17.576Z" fill="#FF0000"/>
<path d="M17.836 25.0817H6.33669V29.0337H17.836V25.0817Z" fill="#FF0000"/>
<path d="M71.588 9.68032H51.596V13.6323H71.588V9.68032Z" fill="#FF0000"/>
<path d="M71.588 18.0003H54.634V21.9523H71.588V18.0003Z" fill="#FF0000"/>
<path d="M71.6213 25.506H60.122V29.458H71.6213V25.506Z" fill="#FF0000"/>
</svg>
